{
	"asset":{
		"generator":"Khronos glTF Blender I/O v5.1.19",
		"version":"2.0"
	},
	"scene":0,
	"scenes":[
		{
			"name":"Scene",
			"nodes":[
				0,
				1,
				2
			]
		}
	],
	"nodes":[
		{
			"mesh":0,
			"name":"Cylinder.002"
		},
		{
			"mesh":1,
			"name":"Cone"
		},
		{
			"mesh":2,
			"name":"COL1"
		}
	],
	"materials":[
		{
			"doubleSided":true,
			"name":"Material.004",
			"pbrMetallicRoughness":{
				"baseColorFactor":[
					0.12710198760032654,
					0.06300337612628937,
					0.009701834060251713,
					1
				],
				"metallicFactor":0
			}
		},
		{
			"doubleSided":true,
			"name":"Material.003",
			"pbrMetallicRoughness":{
				"baseColorFactor":[
					0.02057557925581932,
					0.02057557925581932,
					0.02057557925581932,
					1
				],
				"metallicFactor":0,
				"roughnessFactor":0.5
			}
		}
	],
	"meshes":[
		{
			"name":"Cylinder.007",
			"primitives":[
				{
					"attributes":{
						"POSITION":0,
						"NORMAL":1,
						"TEXCOORD_0":2
					},
					"indices":3,
					"material":0
				}
			]
		},
		{
			"name":"Cone.002",
			"primitives":[
				{
					"attributes":{
						"POSITION":4,
						"NORMAL":5,
						"TEXCOORD_0":6
					},
					"indices":7,
					"material":1
				}
			]
		},
		{
			"name":"Cylinder.008",
			"primitives":[
				{
					"attributes":{
						"POSITION":8,
						"NORMAL":9,
						"TEXCOORD_0":10
					},
					"indices":11
				}
			]
		}
	],
	"accessors":[
		{
			"bufferView":0,
			"componentType":5126,
			"count":26,
			"max":[
				0.05196152254939079,
				0.6000000238418579,
				0.06000000238418579
			],
			"min":[
				-0.05196152254939079,
				-1,
				-0.06000000238418579
			],
			"type":"VEC3"
		},
		{
			"bufferView":1,
			"componentType":5126,
			"count":26,
			"type":"VEC3"
		},
		{
			"bufferView":2,
			"componentType":5126,
			"count":26,
			"type":"VEC2"
		},
		{
			"bufferView":3,
			"componentType":5123,
			"count":60,
			"type":"SCALAR"
		},
		{
			"bufferView":4,
			"componentType":5126,
			"count":13,
			"max":[
				0.10392304509878159,
				1,
				0.12000000476837158
			],
			"min":[
				-0.10392304509878159,
				0.6000000238418579,
				-0.12000000476837158
			],
			"type":"VEC3"
		},
		{
			"bufferView":5,
			"componentType":5126,
			"count":13,
			"type":"VEC3"
		},
		{
			"bufferView":6,
			"componentType":5126,
			"count":13,
			"type":"VEC2"
		},
		{
			"bufferView":7,
			"componentType":5123,
			"count":30,
			"type":"SCALAR"
		},
		{
			"bufferView":8,
			"componentType":5126,
			"count":36,
			"max":[
				0.10392304509878159,
				1,
				0.12000000476837158
			],
			"min":[
				-0.10392304509878159,
				-1,
				-0.12000000476837158
			],
			"type":"VEC3"
		},
		{
			"bufferView":9,
			"componentType":5126,
			"count":36,
			"type":"VEC3"
		},
		{
			"bufferView":10,
			"componentType":5126,
			"count":36,
			"type":"VEC2"
		},
		{
			"bufferView":11,
			"componentType":5123,
			"count":60,
			"type":"SCALAR"
		}
	],
	"bufferViews":[
		{
			"buffer":0,
			"byteLength":312,
			"byteOffset":0,
			"target":34962
		},
		{
			"buffer":0,
			"byteLength":312,
			"byteOffset":312,
			"target":34962
		},
		{
			"buffer":0,
			"byteLength":208,
			"byteOffset":624,
			"target":34962
		},
		{
			"buffer":0,
			"byteLength":120,
			"byteOffset":832,
			"target":34963
		},
		{
			"buffer":0,
			"byteLength":156,
			"byteOffset":952,
			"target":34962
		},
		{
			"buffer":0,
			"byteLength":156,
			"byteOffset":1108,
			"target":34962
		},
		{
			"buffer":0,
			"byteLength":104,
			"byteOffset":1264,
			"target":34962
		},
		{
			"buffer":0,
			"byteLength":60,
			"byteOffset":1368,
			"target":34963
		},
		{
			"buffer":0,
			"byteLength":432,
			"byteOffset":1428,
			"target":34962
		},
		{
			"buffer":0,
			"byteLength":432,
			"byteOffset":1860,
			"target":34962
		},
		{
			"buffer":0,
			"byteLength":288,
			"byteOffset":2292,
			"target":34962
		},
		{
			"buffer":0,
			"byteLength":120,
			"byteOffset":2580,
			"target":34963
		}
	],
	"buffers":[
		{
			"byteLength":2700,
			"uri":"Spear.bin"
		}
	]
}
